<mxfile host="app.diagrams.net" modified="2020-10-09T08:15:20.032Z" agent="5.0 (X11)" etag="XplO0vfySmtSnfgSB-Cq" version="13.7.9" type="github">
  <diagram id="csKqWqRmFJaBYTw5g3q0" name="Page-1">
    <mxGraphModel dx="1099" dy="664" grid="1" gridSize="10" guides="1" tooltips="1" connect="1" arrows="1" fold="1" page="1" pageScale="1" pageWidth="850" pageHeight="1100" math="0" shadow="0">
      <root>
        <mxCell id="0" />
        <mxCell id="1" parent="0" />
        <mxCell id="QY0ji_sxeQzc1hmcxQOH-41" style="edgeStyle=orthogonalEdgeStyle;rounded=0;orthogonalLoop=1;jettySize=auto;html=1;exitX=0.5;exitY=1;exitDx=0;exitDy=0;exitPerimeter=0;entryX=0.5;entryY=0;entryDx=0;entryDy=0;" edge="1" parent="1" source="QY0ji_sxeQzc1hmcxQOH-1" target="QY0ji_sxeQzc1hmcxQOH-2">
          <mxGeometry relative="1" as="geometry" />
        </mxCell>
        <mxCell id="QY0ji_sxeQzc1hmcxQOH-1" value="&lt;b&gt;&lt;font style=&quot;font-size: 40px&quot;&gt;Start&lt;/font&gt;&lt;/b&gt;" style="strokeWidth=2;html=1;shape=mxgraph.flowchart.terminator;whiteSpace=wrap;" vertex="1" parent="1">
          <mxGeometry x="343" y="40" width="165" height="90" as="geometry" />
        </mxCell>
        <mxCell id="QY0ji_sxeQzc1hmcxQOH-45" style="edgeStyle=orthogonalEdgeStyle;rounded=0;orthogonalLoop=1;jettySize=auto;html=1;exitX=0.5;exitY=1;exitDx=0;exitDy=0;entryX=0.5;entryY=0;entryDx=0;entryDy=0;" edge="1" parent="1" source="QY0ji_sxeQzc1hmcxQOH-2" target="QY0ji_sxeQzc1hmcxQOH-42">
          <mxGeometry relative="1" as="geometry" />
        </mxCell>
        <mxCell id="QY0ji_sxeQzc1hmcxQOH-2" value="&lt;div align=&quot;left&quot;&gt;1. Penjumlahan&lt;/div&gt;&lt;div align=&quot;left&quot;&gt;2. Pengurangan&lt;/div&gt;&lt;div align=&quot;left&quot;&gt;3. Perkalian&lt;/div&gt;&lt;div align=&quot;left&quot;&gt;4. Pembagian&lt;/div&gt;&lt;div align=&quot;left&quot;&gt;5. Modulus&lt;br&gt;&lt;/div&gt;" style="shape=parallelogram;html=1;strokeWidth=2;perimeter=parallelogramPerimeter;whiteSpace=wrap;rounded=1;arcSize=12;size=0.23;" vertex="1" parent="1">
          <mxGeometry x="333" y="160" width="184.5" height="100" as="geometry" />
        </mxCell>
        <mxCell id="QY0ji_sxeQzc1hmcxQOH-21" style="edgeStyle=orthogonalEdgeStyle;rounded=0;orthogonalLoop=1;jettySize=auto;html=1;exitX=0.5;exitY=1;exitDx=0;exitDy=0;exitPerimeter=0;entryX=0.5;entryY=0;entryDx=0;entryDy=0;" edge="1" parent="1" source="QY0ji_sxeQzc1hmcxQOH-4" target="QY0ji_sxeQzc1hmcxQOH-12">
          <mxGeometry relative="1" as="geometry" />
        </mxCell>
        <mxCell id="QY0ji_sxeQzc1hmcxQOH-22" style="edgeStyle=orthogonalEdgeStyle;rounded=0;orthogonalLoop=1;jettySize=auto;html=1;exitX=0;exitY=0.5;exitDx=0;exitDy=0;exitPerimeter=0;entryX=0.602;entryY=-0.019;entryDx=0;entryDy=0;entryPerimeter=0;" edge="1" parent="1" source="QY0ji_sxeQzc1hmcxQOH-4" target="QY0ji_sxeQzc1hmcxQOH-9">
          <mxGeometry relative="1" as="geometry" />
        </mxCell>
        <mxCell id="QY0ji_sxeQzc1hmcxQOH-23" style="edgeStyle=orthogonalEdgeStyle;rounded=0;orthogonalLoop=1;jettySize=auto;html=1;exitX=1;exitY=0.5;exitDx=0;exitDy=0;exitPerimeter=0;" edge="1" parent="1" source="QY0ji_sxeQzc1hmcxQOH-4" target="QY0ji_sxeQzc1hmcxQOH-15">
          <mxGeometry relative="1" as="geometry" />
        </mxCell>
        <mxCell id="QY0ji_sxeQzc1hmcxQOH-25" style="edgeStyle=orthogonalEdgeStyle;rounded=0;orthogonalLoop=1;jettySize=auto;html=1;exitX=0;exitY=0.5;exitDx=0;exitDy=0;exitPerimeter=0;entryX=0.579;entryY=-0.019;entryDx=0;entryDy=0;entryPerimeter=0;" edge="1" parent="1" source="QY0ji_sxeQzc1hmcxQOH-4" target="QY0ji_sxeQzc1hmcxQOH-6">
          <mxGeometry relative="1" as="geometry" />
        </mxCell>
        <mxCell id="QY0ji_sxeQzc1hmcxQOH-56" style="edgeStyle=orthogonalEdgeStyle;rounded=0;orthogonalLoop=1;jettySize=auto;html=1;exitX=1;exitY=0.5;exitDx=0;exitDy=0;exitPerimeter=0;" edge="1" parent="1" source="QY0ji_sxeQzc1hmcxQOH-4" target="QY0ji_sxeQzc1hmcxQOH-18">
          <mxGeometry relative="1" as="geometry" />
        </mxCell>
        <mxCell id="QY0ji_sxeQzc1hmcxQOH-4" value="&lt;div&gt;Pilih Opsi &lt;br&gt;&lt;/div&gt;" style="strokeWidth=2;html=1;shape=mxgraph.flowchart.decision;whiteSpace=wrap;" vertex="1" parent="1">
          <mxGeometry x="375" y="390" width="100" height="100" as="geometry" />
        </mxCell>
        <mxCell id="QY0ji_sxeQzc1hmcxQOH-26" style="edgeStyle=orthogonalEdgeStyle;rounded=0;orthogonalLoop=1;jettySize=auto;html=1;exitX=0.5;exitY=1;exitDx=0;exitDy=0;entryX=0.5;entryY=0;entryDx=0;entryDy=0;" edge="1" parent="1" source="QY0ji_sxeQzc1hmcxQOH-6" target="QY0ji_sxeQzc1hmcxQOH-7">
          <mxGeometry relative="1" as="geometry" />
        </mxCell>
        <mxCell id="QY0ji_sxeQzc1hmcxQOH-6" value="Input bil1" style="shape=parallelogram;html=1;strokeWidth=2;perimeter=parallelogramPerimeter;whiteSpace=wrap;rounded=1;arcSize=12;size=0.23;" vertex="1" parent="1">
          <mxGeometry x="90" y="550" width="100" height="60" as="geometry" />
        </mxCell>
        <mxCell id="QY0ji_sxeQzc1hmcxQOH-27" style="edgeStyle=orthogonalEdgeStyle;rounded=0;orthogonalLoop=1;jettySize=auto;html=1;exitX=0.5;exitY=1;exitDx=0;exitDy=0;entryX=0.5;entryY=0;entryDx=0;entryDy=0;" edge="1" parent="1" source="QY0ji_sxeQzc1hmcxQOH-7" target="QY0ji_sxeQzc1hmcxQOH-8">
          <mxGeometry relative="1" as="geometry" />
        </mxCell>
        <mxCell id="QY0ji_sxeQzc1hmcxQOH-7" value="Input bil2" style="shape=parallelogram;html=1;strokeWidth=2;perimeter=parallelogramPerimeter;whiteSpace=wrap;rounded=1;arcSize=12;size=0.23;" vertex="1" parent="1">
          <mxGeometry x="90" y="650" width="100" height="60" as="geometry" />
        </mxCell>
        <mxCell id="QY0ji_sxeQzc1hmcxQOH-61" style="edgeStyle=orthogonalEdgeStyle;rounded=0;orthogonalLoop=1;jettySize=auto;html=1;exitX=0.5;exitY=1;exitDx=0;exitDy=0;entryX=0.5;entryY=0;entryDx=0;entryDy=0;" edge="1" parent="1" source="QY0ji_sxeQzc1hmcxQOH-8" target="QY0ji_sxeQzc1hmcxQOH-53">
          <mxGeometry relative="1" as="geometry" />
        </mxCell>
        <mxCell id="QY0ji_sxeQzc1hmcxQOH-8" value="bil1 + bil2" style="rounded=1;whiteSpace=wrap;html=1;absoluteArcSize=1;arcSize=14;strokeWidth=2;" vertex="1" parent="1">
          <mxGeometry x="90" y="740" width="100" height="50" as="geometry" />
        </mxCell>
        <mxCell id="QY0ji_sxeQzc1hmcxQOH-28" style="edgeStyle=orthogonalEdgeStyle;rounded=0;orthogonalLoop=1;jettySize=auto;html=1;exitX=0.5;exitY=1;exitDx=0;exitDy=0;entryX=0.5;entryY=0;entryDx=0;entryDy=0;" edge="1" parent="1" source="QY0ji_sxeQzc1hmcxQOH-9" target="QY0ji_sxeQzc1hmcxQOH-10">
          <mxGeometry relative="1" as="geometry" />
        </mxCell>
        <mxCell id="QY0ji_sxeQzc1hmcxQOH-9" value="Input bil1" style="shape=parallelogram;html=1;strokeWidth=2;perimeter=parallelogramPerimeter;whiteSpace=wrap;rounded=1;arcSize=12;size=0.23;" vertex="1" parent="1">
          <mxGeometry x="243" y="550" width="100" height="60" as="geometry" />
        </mxCell>
        <mxCell id="QY0ji_sxeQzc1hmcxQOH-29" style="edgeStyle=orthogonalEdgeStyle;rounded=0;orthogonalLoop=1;jettySize=auto;html=1;exitX=0.5;exitY=1;exitDx=0;exitDy=0;entryX=0.5;entryY=0;entryDx=0;entryDy=0;" edge="1" parent="1" source="QY0ji_sxeQzc1hmcxQOH-10" target="QY0ji_sxeQzc1hmcxQOH-11">
          <mxGeometry relative="1" as="geometry" />
        </mxCell>
        <mxCell id="QY0ji_sxeQzc1hmcxQOH-10" value="Input bil2" style="shape=parallelogram;html=1;strokeWidth=2;perimeter=parallelogramPerimeter;whiteSpace=wrap;rounded=1;arcSize=12;size=0.23;" vertex="1" parent="1">
          <mxGeometry x="243" y="650" width="100" height="60" as="geometry" />
        </mxCell>
        <mxCell id="QY0ji_sxeQzc1hmcxQOH-62" style="edgeStyle=orthogonalEdgeStyle;rounded=0;orthogonalLoop=1;jettySize=auto;html=1;exitX=0.5;exitY=1;exitDx=0;exitDy=0;entryX=0.5;entryY=0;entryDx=0;entryDy=0;" edge="1" parent="1" source="QY0ji_sxeQzc1hmcxQOH-11" target="QY0ji_sxeQzc1hmcxQOH-52">
          <mxGeometry relative="1" as="geometry" />
        </mxCell>
        <mxCell id="QY0ji_sxeQzc1hmcxQOH-11" value="bil1 - bil2" style="rounded=1;whiteSpace=wrap;html=1;absoluteArcSize=1;arcSize=14;strokeWidth=2;" vertex="1" parent="1">
          <mxGeometry x="243" y="740" width="100" height="50" as="geometry" />
        </mxCell>
        <mxCell id="QY0ji_sxeQzc1hmcxQOH-30" style="edgeStyle=orthogonalEdgeStyle;rounded=0;orthogonalLoop=1;jettySize=auto;html=1;exitX=0.5;exitY=1;exitDx=0;exitDy=0;entryX=0.5;entryY=0;entryDx=0;entryDy=0;" edge="1" parent="1" source="QY0ji_sxeQzc1hmcxQOH-12" target="QY0ji_sxeQzc1hmcxQOH-13">
          <mxGeometry relative="1" as="geometry" />
        </mxCell>
        <mxCell id="QY0ji_sxeQzc1hmcxQOH-12" value="Input bil1" style="shape=parallelogram;html=1;strokeWidth=2;perimeter=parallelogramPerimeter;whiteSpace=wrap;rounded=1;arcSize=12;size=0.23;" vertex="1" parent="1">
          <mxGeometry x="375" y="550" width="100" height="60" as="geometry" />
        </mxCell>
        <mxCell id="QY0ji_sxeQzc1hmcxQOH-31" style="edgeStyle=orthogonalEdgeStyle;rounded=0;orthogonalLoop=1;jettySize=auto;html=1;exitX=0.5;exitY=1;exitDx=0;exitDy=0;entryX=0.5;entryY=0;entryDx=0;entryDy=0;" edge="1" parent="1" source="QY0ji_sxeQzc1hmcxQOH-13" target="QY0ji_sxeQzc1hmcxQOH-14">
          <mxGeometry relative="1" as="geometry" />
        </mxCell>
        <mxCell id="QY0ji_sxeQzc1hmcxQOH-13" value="Input bil2" style="shape=parallelogram;html=1;strokeWidth=2;perimeter=parallelogramPerimeter;whiteSpace=wrap;rounded=1;arcSize=12;size=0.23;" vertex="1" parent="1">
          <mxGeometry x="375" y="650" width="100" height="60" as="geometry" />
        </mxCell>
        <mxCell id="QY0ji_sxeQzc1hmcxQOH-47" style="edgeStyle=orthogonalEdgeStyle;rounded=0;orthogonalLoop=1;jettySize=auto;html=1;exitX=0.5;exitY=1;exitDx=0;exitDy=0;entryX=0.5;entryY=0;entryDx=0;entryDy=0;" edge="1" parent="1" source="QY0ji_sxeQzc1hmcxQOH-14" target="QY0ji_sxeQzc1hmcxQOH-46">
          <mxGeometry relative="1" as="geometry" />
        </mxCell>
        <mxCell id="QY0ji_sxeQzc1hmcxQOH-14" value="bil1 * bil2" style="rounded=1;whiteSpace=wrap;html=1;absoluteArcSize=1;arcSize=14;strokeWidth=2;" vertex="1" parent="1">
          <mxGeometry x="375" y="740" width="100" height="50" as="geometry" />
        </mxCell>
        <mxCell id="QY0ji_sxeQzc1hmcxQOH-32" style="edgeStyle=orthogonalEdgeStyle;rounded=0;orthogonalLoop=1;jettySize=auto;html=1;exitX=0.5;exitY=1;exitDx=0;exitDy=0;entryX=0.5;entryY=0;entryDx=0;entryDy=0;" edge="1" parent="1" source="QY0ji_sxeQzc1hmcxQOH-15" target="QY0ji_sxeQzc1hmcxQOH-16">
          <mxGeometry relative="1" as="geometry" />
        </mxCell>
        <mxCell id="QY0ji_sxeQzc1hmcxQOH-15" value="Input bil1" style="shape=parallelogram;html=1;strokeWidth=2;perimeter=parallelogramPerimeter;whiteSpace=wrap;rounded=1;arcSize=12;size=0.23;" vertex="1" parent="1">
          <mxGeometry x="517.5" y="550" width="100" height="60" as="geometry" />
        </mxCell>
        <mxCell id="QY0ji_sxeQzc1hmcxQOH-33" style="edgeStyle=orthogonalEdgeStyle;rounded=0;orthogonalLoop=1;jettySize=auto;html=1;exitX=0.5;exitY=1;exitDx=0;exitDy=0;entryX=0.5;entryY=0;entryDx=0;entryDy=0;" edge="1" parent="1" source="QY0ji_sxeQzc1hmcxQOH-16" target="QY0ji_sxeQzc1hmcxQOH-17">
          <mxGeometry relative="1" as="geometry" />
        </mxCell>
        <mxCell id="QY0ji_sxeQzc1hmcxQOH-16" value="Input bil2" style="shape=parallelogram;html=1;strokeWidth=2;perimeter=parallelogramPerimeter;whiteSpace=wrap;rounded=1;arcSize=12;size=0.23;" vertex="1" parent="1">
          <mxGeometry x="517.5" y="650" width="100" height="60" as="geometry" />
        </mxCell>
        <mxCell id="QY0ji_sxeQzc1hmcxQOH-58" style="edgeStyle=orthogonalEdgeStyle;rounded=0;orthogonalLoop=1;jettySize=auto;html=1;exitX=0.5;exitY=1;exitDx=0;exitDy=0;entryX=0.5;entryY=0;entryDx=0;entryDy=0;" edge="1" parent="1" source="QY0ji_sxeQzc1hmcxQOH-17" target="QY0ji_sxeQzc1hmcxQOH-54">
          <mxGeometry relative="1" as="geometry" />
        </mxCell>
        <mxCell id="QY0ji_sxeQzc1hmcxQOH-17" value="bil1 / bil2" style="rounded=1;whiteSpace=wrap;html=1;absoluteArcSize=1;arcSize=14;strokeWidth=2;" vertex="1" parent="1">
          <mxGeometry x="517.5" y="740" width="100" height="50" as="geometry" />
        </mxCell>
        <mxCell id="QY0ji_sxeQzc1hmcxQOH-34" style="edgeStyle=orthogonalEdgeStyle;rounded=0;orthogonalLoop=1;jettySize=auto;html=1;exitX=0.5;exitY=1;exitDx=0;exitDy=0;entryX=0.5;entryY=0;entryDx=0;entryDy=0;" edge="1" parent="1" source="QY0ji_sxeQzc1hmcxQOH-18" target="QY0ji_sxeQzc1hmcxQOH-19">
          <mxGeometry relative="1" as="geometry" />
        </mxCell>
        <mxCell id="QY0ji_sxeQzc1hmcxQOH-18" value="Input bil1" style="shape=parallelogram;html=1;strokeWidth=2;perimeter=parallelogramPerimeter;whiteSpace=wrap;rounded=1;arcSize=12;size=0.23;" vertex="1" parent="1">
          <mxGeometry x="650" y="550" width="100" height="60" as="geometry" />
        </mxCell>
        <mxCell id="QY0ji_sxeQzc1hmcxQOH-35" style="edgeStyle=orthogonalEdgeStyle;rounded=0;orthogonalLoop=1;jettySize=auto;html=1;exitX=0.5;exitY=1;exitDx=0;exitDy=0;entryX=0.5;entryY=0;entryDx=0;entryDy=0;" edge="1" parent="1" source="QY0ji_sxeQzc1hmcxQOH-19" target="QY0ji_sxeQzc1hmcxQOH-20">
          <mxGeometry relative="1" as="geometry" />
        </mxCell>
        <mxCell id="QY0ji_sxeQzc1hmcxQOH-19" value="Input bil2" style="shape=parallelogram;html=1;strokeWidth=2;perimeter=parallelogramPerimeter;whiteSpace=wrap;rounded=1;arcSize=12;size=0.23;" vertex="1" parent="1">
          <mxGeometry x="650" y="650" width="100" height="60" as="geometry" />
        </mxCell>
        <mxCell id="QY0ji_sxeQzc1hmcxQOH-57" style="edgeStyle=orthogonalEdgeStyle;rounded=0;orthogonalLoop=1;jettySize=auto;html=1;exitX=0.5;exitY=1;exitDx=0;exitDy=0;entryX=0.5;entryY=0;entryDx=0;entryDy=0;" edge="1" parent="1" source="QY0ji_sxeQzc1hmcxQOH-20" target="QY0ji_sxeQzc1hmcxQOH-55">
          <mxGeometry relative="1" as="geometry" />
        </mxCell>
        <mxCell id="QY0ji_sxeQzc1hmcxQOH-20" value="bil1 % bil2" style="rounded=1;whiteSpace=wrap;html=1;absoluteArcSize=1;arcSize=14;strokeWidth=2;" vertex="1" parent="1">
          <mxGeometry x="650" y="740" width="100" height="50" as="geometry" />
        </mxCell>
        <mxCell id="QY0ji_sxeQzc1hmcxQOH-36" value="&lt;div align=&quot;left&quot;&gt;1. Penjumlahan&lt;br&gt;&lt;/div&gt;" style="text;html=1;strokeColor=none;fillColor=none;align=left;verticalAlign=middle;whiteSpace=wrap;rounded=0;rotation=270;" vertex="1" parent="1">
          <mxGeometry x="120" y="490" width="90" height="20" as="geometry" />
        </mxCell>
        <mxCell id="QY0ji_sxeQzc1hmcxQOH-37" value="&lt;div align=&quot;left&quot;&gt;2. Pengurangan&lt;br&gt;&lt;/div&gt;" style="text;html=1;strokeColor=none;fillColor=none;align=left;verticalAlign=middle;whiteSpace=wrap;rounded=0;rotation=270;" vertex="1" parent="1">
          <mxGeometry x="275" y="490" width="90" height="20" as="geometry" />
        </mxCell>
        <mxCell id="QY0ji_sxeQzc1hmcxQOH-38" value="&lt;div align=&quot;left&quot;&gt;3. Perkalian&lt;br&gt;&lt;/div&gt;" style="text;html=1;strokeColor=none;fillColor=none;align=left;verticalAlign=middle;whiteSpace=wrap;rounded=0;rotation=270;" vertex="1" parent="1">
          <mxGeometry x="400" y="490" width="90" height="20" as="geometry" />
        </mxCell>
        <mxCell id="QY0ji_sxeQzc1hmcxQOH-39" value="4. Pembagian" style="text;html=1;strokeColor=none;fillColor=none;align=left;verticalAlign=middle;whiteSpace=wrap;rounded=0;rotation=270;" vertex="1" parent="1">
          <mxGeometry x="540" y="490" width="90" height="20" as="geometry" />
        </mxCell>
        <mxCell id="QY0ji_sxeQzc1hmcxQOH-40" value="5. Modulus" style="text;html=1;strokeColor=none;fillColor=none;align=left;verticalAlign=middle;whiteSpace=wrap;rounded=0;rotation=270;" vertex="1" parent="1">
          <mxGeometry x="680" y="490" width="90" height="20" as="geometry" />
        </mxCell>
        <mxCell id="QY0ji_sxeQzc1hmcxQOH-44" style="edgeStyle=orthogonalEdgeStyle;rounded=0;orthogonalLoop=1;jettySize=auto;html=1;exitX=0.5;exitY=1;exitDx=0;exitDy=0;entryX=0.5;entryY=0;entryDx=0;entryDy=0;entryPerimeter=0;" edge="1" parent="1" source="QY0ji_sxeQzc1hmcxQOH-42" target="QY0ji_sxeQzc1hmcxQOH-4">
          <mxGeometry relative="1" as="geometry" />
        </mxCell>
        <mxCell id="QY0ji_sxeQzc1hmcxQOH-42" value="&lt;div&gt;Input pilihan &lt;br&gt;&lt;/div&gt;&lt;div&gt;dengan angka&lt;br&gt;&lt;/div&gt;" style="shape=parallelogram;perimeter=parallelogramPerimeter;whiteSpace=wrap;html=1;fixedSize=1;" vertex="1" parent="1">
          <mxGeometry x="365" y="290" width="120" height="60" as="geometry" />
        </mxCell>
        <mxCell id="QY0ji_sxeQzc1hmcxQOH-64" style="edgeStyle=orthogonalEdgeStyle;rounded=0;orthogonalLoop=1;jettySize=auto;html=1;exitX=0.5;exitY=1;exitDx=0;exitDy=0;entryX=0.5;entryY=0;entryDx=0;entryDy=0;entryPerimeter=0;" edge="1" parent="1" source="QY0ji_sxeQzc1hmcxQOH-46" target="QY0ji_sxeQzc1hmcxQOH-63">
          <mxGeometry relative="1" as="geometry" />
        </mxCell>
        <mxCell id="QY0ji_sxeQzc1hmcxQOH-46" value="&lt;font style=&quot;font-size: 36px&quot;&gt;Hasil&lt;/font&gt;" style="shape=parallelogram;perimeter=parallelogramPerimeter;whiteSpace=wrap;html=1;fixedSize=1;" vertex="1" parent="1">
          <mxGeometry x="365" y="870" width="120" height="60" as="geometry" />
        </mxCell>
        <mxCell id="QY0ji_sxeQzc1hmcxQOH-68" style="edgeStyle=orthogonalEdgeStyle;rounded=0;orthogonalLoop=1;jettySize=auto;html=1;exitX=0.5;exitY=1;exitDx=0;exitDy=0;entryX=0.5;entryY=0;entryDx=0;entryDy=0;entryPerimeter=0;" edge="1" parent="1" source="QY0ji_sxeQzc1hmcxQOH-52" target="QY0ji_sxeQzc1hmcxQOH-63">
          <mxGeometry relative="1" as="geometry" />
        </mxCell>
        <mxCell id="QY0ji_sxeQzc1hmcxQOH-52" value="&lt;font style=&quot;font-size: 36px&quot;&gt;Hasil&lt;/font&gt;" style="shape=parallelogram;perimeter=parallelogramPerimeter;whiteSpace=wrap;html=1;fixedSize=1;" vertex="1" parent="1">
          <mxGeometry x="233" y="870" width="120" height="60" as="geometry" />
        </mxCell>
        <mxCell id="QY0ji_sxeQzc1hmcxQOH-69" style="edgeStyle=orthogonalEdgeStyle;rounded=0;orthogonalLoop=1;jettySize=auto;html=1;exitX=0.5;exitY=1;exitDx=0;exitDy=0;" edge="1" parent="1" source="QY0ji_sxeQzc1hmcxQOH-53" target="QY0ji_sxeQzc1hmcxQOH-63">
          <mxGeometry relative="1" as="geometry" />
        </mxCell>
        <mxCell id="QY0ji_sxeQzc1hmcxQOH-53" value="&lt;font style=&quot;font-size: 36px&quot;&gt;Hasil&lt;/font&gt;" style="shape=parallelogram;perimeter=parallelogramPerimeter;whiteSpace=wrap;html=1;fixedSize=1;" vertex="1" parent="1">
          <mxGeometry x="80" y="870" width="120" height="60" as="geometry" />
        </mxCell>
        <mxCell id="QY0ji_sxeQzc1hmcxQOH-67" style="edgeStyle=orthogonalEdgeStyle;rounded=0;orthogonalLoop=1;jettySize=auto;html=1;exitX=0.5;exitY=1;exitDx=0;exitDy=0;entryX=0.5;entryY=0;entryDx=0;entryDy=0;entryPerimeter=0;" edge="1" parent="1" source="QY0ji_sxeQzc1hmcxQOH-54" target="QY0ji_sxeQzc1hmcxQOH-63">
          <mxGeometry relative="1" as="geometry" />
        </mxCell>
        <mxCell id="QY0ji_sxeQzc1hmcxQOH-54" value="&lt;font style=&quot;font-size: 36px&quot;&gt;Hasil&lt;/font&gt;" style="shape=parallelogram;perimeter=parallelogramPerimeter;whiteSpace=wrap;html=1;fixedSize=1;" vertex="1" parent="1">
          <mxGeometry x="507.5" y="870" width="120" height="60" as="geometry" />
        </mxCell>
        <mxCell id="QY0ji_sxeQzc1hmcxQOH-66" style="edgeStyle=orthogonalEdgeStyle;rounded=0;orthogonalLoop=1;jettySize=auto;html=1;exitX=0.5;exitY=1;exitDx=0;exitDy=0;" edge="1" parent="1" source="QY0ji_sxeQzc1hmcxQOH-55" target="QY0ji_sxeQzc1hmcxQOH-63">
          <mxGeometry relative="1" as="geometry" />
        </mxCell>
        <mxCell id="QY0ji_sxeQzc1hmcxQOH-55" value="&lt;font style=&quot;font-size: 36px&quot;&gt;Hasil&lt;/font&gt;" style="shape=parallelogram;perimeter=parallelogramPerimeter;whiteSpace=wrap;html=1;fixedSize=1;" vertex="1" parent="1">
          <mxGeometry x="640" y="870" width="120" height="60" as="geometry" />
        </mxCell>
        <mxCell id="QY0ji_sxeQzc1hmcxQOH-63" value="&lt;font style=&quot;font-size: 24px&quot;&gt;End&lt;/font&gt;" style="strokeWidth=2;html=1;shape=mxgraph.flowchart.terminator;whiteSpace=wrap;" vertex="1" parent="1">
          <mxGeometry x="363" y="990" width="125" height="80" as="geometry" />
        </mxCell>
      </root>
    </mxGraphModel>
  </diagram>
</mxfile>
